<?xml version="1.0" standalone="no"?>
<svg xmlns:xlink="http://www.w3.org/1999/xlink" id="wave" style="transform:rotate(0deg); transition: 0.3s" viewBox="0 0 1440 330" version="1.1" xmlns="http://www.w3.org/2000/svg"><defs><linearGradient id="sw-gradient-0" x1="0" x2="0" y1="1" y2="0"><stop stop-color="rgba(91, 85, 131, 1)" offset="0%"/><stop stop-color="rgba(63, 61, 86, 1)" offset="100%"/></linearGradient></defs><path style="transform:translate(0, 0px); opacity:1" fill="url(#sw-gradient-0)" d="M0,198L34.3,192.5C68.6,187,137,176,206,192.5C274.3,209,343,253,411,242C480,231,549,165,617,154C685.7,143,754,187,823,220C891.4,253,960,275,1029,258.5C1097.1,242,1166,187,1234,137.5C1302.9,88,1371,44,1440,22C1508.6,0,1577,0,1646,0C1714.3,0,1783,0,1851,22C1920,44,1989,88,2057,93.5C2125.7,99,2194,66,2263,66C2331.4,66,2400,99,2469,104.5C2537.1,110,2606,88,2674,66C2742.9,44,2811,22,2880,44C2948.6,66,3017,132,3086,159.5C3154.3,187,3223,176,3291,170.5C3360,165,3429,165,3497,159.5C3565.7,154,3634,143,3703,148.5C3771.4,154,3840,176,3909,192.5C3977.1,209,4046,220,4114,231C4182.9,242,4251,253,4320,253C4388.6,253,4457,242,4526,247.5C4594.3,253,4663,275,4731,242C4800,209,4869,121,4903,77L4937.1,33L4937.1,330L4902.9,330C4868.6,330,4800,330,4731,330C4662.9,330,4594,330,4526,330C4457.1,330,4389,330,4320,330C4251.4,330,4183,330,4114,330C4045.7,330,3977,330,3909,330C3840,330,3771,330,3703,330C3634.3,330,3566,330,3497,330C3428.6,330,3360,330,3291,330C3222.9,330,3154,330,3086,330C3017.1,330,2949,330,2880,330C2811.4,330,2743,330,2674,330C2605.7,330,2537,330,2469,330C2400,330,2331,330,2263,330C2194.3,330,2126,330,2057,330C1988.6,330,1920,330,1851,330C1782.9,330,1714,330,1646,330C1577.1,330,1509,330,1440,330C1371.4,330,1303,330,1234,330C1165.7,330,1097,330,1029,330C960,330,891,330,823,330C754.3,330,686,330,617,330C548.6,330,480,330,411,330C342.9,330,274,330,206,330C137.1,330,69,330,34,330L0,330Z"/><defs><linearGradient id="sw-gradient-1" x1="0" x2="0" y1="1" y2="0"><stop stop-color="rgba(63, 61, 86, 1)" offset="0%"/><stop stop-color="rgba(80, 71, 179, 1)" offset="100%"/></linearGradient></defs><path style="transform:translate(0, 50px); opacity:0.9" fill="url(#sw-gradient-1)" d="M0,66L34.3,71.5C68.6,77,137,88,206,110C274.3,132,343,165,411,187C480,209,549,220,617,187C685.7,154,754,77,823,77C891.4,77,960,154,1029,176C1097.1,198,1166,165,1234,132C1302.9,99,1371,66,1440,82.5C1508.6,99,1577,165,1646,198C1714.3,231,1783,231,1851,242C1920,253,1989,275,2057,253C2125.7,231,2194,165,2263,159.5C2331.4,154,2400,209,2469,209C2537.1,209,2606,154,2674,126.5C2742.9,99,2811,99,2880,110C2948.6,121,3017,143,3086,170.5C3154.3,198,3223,231,3291,225.5C3360,220,3429,176,3497,132C3565.7,88,3634,44,3703,49.5C3771.4,55,3840,110,3909,121C3977.1,132,4046,99,4114,104.5C4182.9,110,4251,154,4320,187C4388.6,220,4457,242,4526,247.5C4594.3,253,4663,242,4731,203.5C4800,165,4869,99,4903,66L4937.1,33L4937.1,330L4902.9,330C4868.6,330,4800,330,4731,330C4662.9,330,4594,330,4526,330C4457.1,330,4389,330,4320,330C4251.4,330,4183,330,4114,330C4045.7,330,3977,330,3909,330C3840,330,3771,330,3703,330C3634.3,330,3566,330,3497,330C3428.6,330,3360,330,3291,330C3222.9,330,3154,330,3086,330C3017.1,330,2949,330,2880,330C2811.4,330,2743,330,2674,330C2605.7,330,2537,330,2469,330C2400,330,2331,330,2263,330C2194.3,330,2126,330,2057,330C1988.6,330,1920,330,1851,330C1782.9,330,1714,330,1646,330C1577.1,330,1509,330,1440,330C1371.4,330,1303,330,1234,330C1165.7,330,1097,330,1029,330C960,330,891,330,823,330C754.3,330,686,330,617,330C548.6,330,480,330,411,330C342.9,330,274,330,206,330C137.1,330,69,330,34,330L0,330Z"/></svg>